<svg id="Layer_1" data-name="Layer 1" xmlns="http://www.w3.org/2000/svg" width="23px" height="23px" viewBox="0 0 23 23"><defs><style>.cls-1{fill:#414141;}</style></defs><title>search</title><path class="cls-1" d="M18.3,10.3A7.9,7.9,0,0,1,16,16a8.4,8.4,0,0,1-5.7,2.4A8.2,8.2,0,0,1,4.6,16a8.4,8.4,0,0,1-2.3-5.7A7.9,7.9,0,0,1,4.6,4.7a8.2,8.2,0,0,1,5.7-2.4A7.8,7.8,0,0,1,16,4.7,7.9,7.9,0,0,1,18.3,10.3ZM22.6,21l-4.3-4.2A10.4,10.4,0,0,0,17.6,3,10.4,10.4,0,0,0,3,3a10,10,0,0,0-3,7.3,9.9,9.9,0,0,0,3,7.3,10.1,10.1,0,0,0,13.7.8L21,22.7a1.2,1.2,0,0,0,1.6,0,1.4,1.4,0,0,0,0-1.7Z"/></svg>