<?xml version="1.0" encoding="UTF-8"?>
<svg width="6px" height="10px" viewBox="0 0 6 10" version="1.1" xmlns="http://www.w3.org/2000/svg" xmlns:xlink="http://www.w3.org/1999/xlink">
    <!-- Generator: sketchtool 53.1 (72631) - https://sketchapp.com -->
    <title>310C0072-1B41-45DA-AED7-499200FEFF81</title>
    <desc>Created with sketchtool.</desc>
    <g id="Store-Locator" stroke="none" stroke-width="1" fill="none" fill-rule="evenodd">
        <g id="TBS_StoreLocator_Page" transform="translate(-181.000000, -247.000000)" fill="#4A4F55" fill-rule="nonzero">
            <g id="HEADER" transform="translate(135.000000, 244.000000)">
                <g id="breadcrumbs">
                    <path d="M51.4542279,7.98907887 C51.4595587,8.16862539 51.3976855,8.35194058 51.2755418,8.47894471 C51.1008747,8.65731923 50.9262075,8.83893692 50.7515404,9.01731145 C49.9967287,9.795673 49.238798,10.5740345 48.4839863,11.3523961 C48.0098897,11.8388721 47.5357932,12.3285912 47.0616966,12.8150672 C46.8152911,13.0712779 46.4316472,13.0518188 46.1790036,12.8150672 C45.9325982,12.5783155 45.9481934,12.137244 46.1790036,11.8972492 C46.3536708,11.7188747 46.5283379,11.537257 46.7030051,11.3588824 C47.4578168,10.5805209 48.2157475,9.80215934 48.9705591,9.02379779 C49.3026172,8.68306921 49.6346752,8.34074965 49.9667332,7.99906776 C49.9343806,7.96587549 49.9020279,7.93275319 49.8696753,7.89974205 C49.114711,7.12188787 48.3566271,6.34403369 47.6016629,5.56617951 C47.1274704,5.08002065 46.653278,4.59062072 46.1790856,4.10446186 C45.9295107,3.84841819 45.9513485,3.44652687 46.1790856,3.18724214 C46.4068228,2.92795741 46.8311002,2.94740377 47.061957,3.18724214 C47.2366595,3.36550039 47.411362,3.5469997 47.5860644,3.72525795 C48.3410287,4.50311213 49.0991126,5.28096631 49.8540768,6.05882049 C50.3282693,6.54497935 50.8024617,7.03437928 51.2766541,7.52053814 C51.4026583,7.65144462 51.4593481,7.82047469 51.4542279,7.98907887 Z" id="Combined-Shape" transform="translate(48.727273, 8.000000) rotate(-360.000000) translate(-48.727273, -8.000000) "></path>
                </g>
            </g>
        </g>
    </g>
</svg>